<svg xmlns="http://www.w3.org/2000/svg" version="1.1" xmlns:xlink="http://www.w3.org/1999/xlink" xmlns:svgjs="http://svgjs.com/svgjs" width="1440" height="560" preserveAspectRatio="none" viewBox="0 0 1440 560"><g mask="url(&quot;#SvgjsMask4182&quot;)" fill="none"><rect width="1440" height="560" x="0" y="0" fill="url(#SvgjsLinearGradient4183)"></rect><path d="M1440 0L1199.58 0L1440 151.59z" fill="rgba(255, 255, 255, .1)"></path><path d="M1199.58 0L1440 151.59L1440 239.45L540.6299999999999 0z" fill="rgba(255, 255, 255, .075)"></path><path d="M540.63 0L1440 239.45L1440 289L233.92000000000002 0z" fill="rgba(255, 255, 255, .05)"></path><path d="M233.92000000000007 0L1440 289L1440 389.90999999999997L71.54000000000008 0z" fill="rgba(255, 255, 255, .025)"></path><path d="M0 560L279.64 560L0 470.4z" fill="rgba(0, 0, 0, .1)"></path><path d="M0 470.4L279.64 560L443.52 560L0 345.76z" fill="rgba(0, 0, 0, .075)"></path><path d="M0 345.76L443.52 560L653.35 560L0 289.39z" fill="rgba(0, 0, 0, .05)"></path><path d="M0 289.39L653.35 560L679.07 560L0 201.07z" fill="rgba(0, 0, 0, .025)"></path></g><defs><mask id="SvgjsMask4182"><rect width="1440" height="560" fill="#ffffff"></rect></mask><linearGradient x1="50%" y1="0%" x2="50%" y2="100%" gradientUnits="userSpaceOnUse" id="SvgjsLinearGradient4183"><stop stop-color="rgba(163, 0, 1, 1)" offset="0.32"></stop><stop stop-color="rgba(0, 0, 0, 1)" offset="0.74"></stop></linearGradient></defs></svg>