<svg xmlns="http://www.w3.org/2000/svg" version="1.1" xmlns:xlink="http://www.w3.org/1999/xlink" xmlns:svgjs="http://svgjs.com/svgjs" width="1440" height="560" preserveAspectRatio="none" viewBox="0 0 1440 560"><g mask="url(&quot;#SvgjsMask2431&quot;)" fill="none"><g mask="url(&quot;#SvgjsMask2433&quot;)"><path d="M573.5 294.5L604.5 294.5L635.5 294.5M604.5 263.5L635.5 232.5L666.5 232.5L697.5 232.5L728.5 232.5L759.5 232.5M139.5 263.5L170.5 294.5L201.5 294.5L232.5 294.5L263.5 294.5L294.5 294.5L325.5 294.5L356.5 294.5L387.5 294.5M914.5 263.5L945.5 294.5L976.5 294.5L1007.5 294.5L1038.5 294.5L1069.5 294.5L1100.5 294.5L1131.5 294.5L1162.5 325.5L1193.5 356.5L1224.5 356.5L1255.5 356.5L1286.5 356.5L1317.5 356.5L1348.5 356.5M511.5 294.5L542.5 325.5L573.5 325.5L604.5 325.5L635.5 325.5L666.5 325.5L697.5 325.5L728.5 294.5L759.5 294.5L790.5 294.5L821.5 294.5L852.5 294.5L883.5 294.5L914.5 294.5L945.5 325.5L976.5 325.5L1007.5 325.5M1286.5 294.5L1317.5 325.5L1348.5 325.5L1379.5 325.5M449.5 294.5L480.5 263.5L511.5 263.5M15.5 294.5L46.5 325.5L77.5 325.5L108.5 325.5L139.5 325.5L170.5 325.5L201.5 325.5L232.5 325.5L263.5 325.5L294.5 325.5L325.5 325.5L356.5 325.5L387.5 325.5L418.5 325.5L449.5 325.5L480.5 325.5L511.5 325.5L542.5 356.5L573.5 356.5M325.5 263.5L356.5 232.5L387.5 232.5L418.5 232.5L449.5 232.5L480.5 232.5L511.5 232.5M976.5 263.5L1007.5 232.5L1038.5 232.5L1069.5 232.5L1100.5 232.5L1131.5 232.5L1162.5 232.5L1193.5 232.5L1224.5 263.5L1255.5 263.5L1286.5 263.5L1317.5 263.5L1348.5 232.5L1379.5 232.5M1131.5 263.5L1162.5 263.5L1193.5 263.5M-15.5 294.5L15.5 294.5L46.5 294.5L77.5 294.5L108.5 294.5L139.5 263.5L170.5 263.5L201.5 263.5L232.5 263.5L263.5 263.5L294.5 263.5L325.5 263.5L356.5 263.5L387.5 263.5L418.5 294.5L449.5 294.5L480.5 294.5L511.5 294.5L542.5 294.5L573.5 294.5L604.5 263.5L635.5 263.5L666.5 263.5L697.5 263.5L728.5 263.5L759.5 263.5L790.5 263.5L821.5 263.5L852.5 263.5L883.5 263.5L914.5 263.5L945.5 263.5L976.5 263.5L1007.5 263.5L1038.5 263.5L1069.5 263.5L1100.5 263.5L1131.5 263.5L1162.5 294.5L1193.5 294.5L1224.5 294.5L1255.5 294.5L1286.5 294.5L1317.5 294.5L1348.5 263.5" stroke="url(#SvgjsRadialGradient2432)" stroke-width="5.17"></path><path d="M1340.75 263.5 a7.75 7.75 0 1 0 15.5 0 a7.75 7.75 0 1 0 -15.5 0zM627.75 294.5 a7.75 7.75 0 1 0 15.5 0 a7.75 7.75 0 1 0 -15.5 0zM751.75 232.5 a7.75 7.75 0 1 0 15.5 0 a7.75 7.75 0 1 0 -15.5 0zM379.75 294.5 a7.75 7.75 0 1 0 15.5 0 a7.75 7.75 0 1 0 -15.5 0zM1340.75 356.5 a7.75 7.75 0 1 0 15.5 0 a7.75 7.75 0 1 0 -15.5 0zM999.75 325.5 a7.75 7.75 0 1 0 15.5 0 a7.75 7.75 0 1 0 -15.5 0zM1371.75 325.5 a7.75 7.75 0 1 0 15.5 0 a7.75 7.75 0 1 0 -15.5 0zM503.75 263.5 a7.75 7.75 0 1 0 15.5 0 a7.75 7.75 0 1 0 -15.5 0zM565.75 356.5 a7.75 7.75 0 1 0 15.5 0 a7.75 7.75 0 1 0 -15.5 0zM503.75 232.5 a7.75 7.75 0 1 0 15.5 0 a7.75 7.75 0 1 0 -15.5 0zM1371.75 232.5 a7.75 7.75 0 1 0 15.5 0 a7.75 7.75 0 1 0 -15.5 0zM1185.75 263.5 a7.75 7.75 0 1 0 15.5 0 a7.75 7.75 0 1 0 -15.5 0z" fill="url(#SvgjsRadialGradient2432)"></path><path d="M232.5 232.5L263.5 201.5L294.5 201.5L325.5 201.5M201.5 232.5L232.5 201.5M139.5 232.5L170.5 201.5L201.5 201.5M-15.5 263.5L15.5 263.5L46.5 263.5L77.5 263.5L108.5 263.5L139.5 232.5L170.5 232.5L201.5 232.5L232.5 232.5L263.5 232.5L294.5 232.5" stroke="url(#SvgjsRadialGradient2432)" stroke-width="5.17"></path><path d="M286.75 232.5 a7.75 7.75 0 1 0 15.5 0 a7.75 7.75 0 1 0 -15.5 0zM317.75 201.5 a7.75 7.75 0 1 0 15.5 0 a7.75 7.75 0 1 0 -15.5 0zM224.75 201.5 a7.75 7.75 0 1 0 15.5 0 a7.75 7.75 0 1 0 -15.5 0zM193.75 201.5 a7.75 7.75 0 1 0 15.5 0 a7.75 7.75 0 1 0 -15.5 0z" fill="url(#SvgjsRadialGradient2432)"></path><path d="M-15.5 325.5L15.5 356.5L46.5 356.5L77.5 356.5L108.5 356.5" stroke="url(#SvgjsRadialGradient2432)" stroke-width="5.17"></path><path d="M100.75 356.5 a7.75 7.75 0 1 0 15.5 0 a7.75 7.75 0 1 0 -15.5 0z" fill="url(#SvgjsRadialGradient2432)"></path><path d="M480.5 170.5L511.5 201.5M635.5 201.5L666.5 170.5L697.5 170.5L728.5 170.5L759.5 170.5M1193.5 201.5L1224.5 201.5L1255.5 201.5M790.5 201.5L821.5 232.5M1162.5 201.5L1193.5 170.5L1224.5 170.5L1255.5 170.5L1286.5 139.5L1317.5 139.5L1348.5 139.5L1379.5 139.5M852.5 201.5L883.5 170.5M418.5 170.5L449.5 139.5L480.5 139.5L511.5 139.5L542.5 139.5L573.5 139.5L604.5 139.5L635.5 139.5L666.5 139.5L697.5 139.5L728.5 139.5L759.5 139.5M108.5 170.5L139.5 201.5M1069.5 201.5L1100.5 170.5L1131.5 170.5L1162.5 170.5L1193.5 139.5L1224.5 139.5L1255.5 139.5M356.5 170.5L387.5 201.5L418.5 201.5L449.5 201.5L480.5 201.5M914.5 201.5L945.5 232.5L976.5 232.5M-15.5 232.5L15.5 232.5L46.5 232.5L77.5 201.5L108.5 170.5L139.5 170.5L170.5 170.5L201.5 170.5L232.5 170.5L263.5 170.5L294.5 170.5L325.5 170.5L356.5 170.5L387.5 170.5L418.5 170.5L449.5 170.5L480.5 170.5L511.5 170.5L542.5 201.5L573.5 201.5L604.5 201.5L635.5 201.5L666.5 201.5L697.5 201.5L728.5 201.5L759.5 201.5L790.5 201.5L821.5 201.5L852.5 201.5L883.5 201.5L914.5 201.5L945.5 201.5L976.5 201.5L1007.5 201.5L1038.5 201.5L1069.5 201.5L1100.5 201.5L1131.5 201.5L1162.5 201.5L1193.5 201.5L1224.5 232.5L1255.5 232.5L1286.5 232.5L1317.5 201.5L1348.5 201.5" stroke="url(#SvgjsRadialGradient2432)" stroke-width="5.17"></path><path d="M1340.75 201.5 a7.75 7.75 0 1 0 15.5 0 a7.75 7.75 0 1 0 -15.5 0zM503.75 201.5 a7.75 7.75 0 1 0 15.5 0 a7.75 7.75 0 1 0 -15.5 0zM751.75 170.5 a7.75 7.75 0 1 0 15.5 0 a7.75 7.75 0 1 0 -15.5 0zM1247.75 201.5 a7.75 7.75 0 1 0 15.5 0 a7.75 7.75 0 1 0 -15.5 0zM813.75 232.5 a7.75 7.75 0 1 0 15.5 0 a7.75 7.75 0 1 0 -15.5 0zM1371.75 139.5 a7.75 7.75 0 1 0 15.5 0 a7.75 7.75 0 1 0 -15.5 0zM875.75 170.5 a7.75 7.75 0 1 0 15.5 0 a7.75 7.75 0 1 0 -15.5 0zM751.75 139.5 a7.75 7.75 0 1 0 15.5 0 a7.75 7.75 0 1 0 -15.5 0zM131.75 201.5 a7.75 7.75 0 1 0 15.5 0 a7.75 7.75 0 1 0 -15.5 0zM1247.75 139.5 a7.75 7.75 0 1 0 15.5 0 a7.75 7.75 0 1 0 -15.5 0zM472.75 201.5 a7.75 7.75 0 1 0 15.5 0 a7.75 7.75 0 1 0 -15.5 0zM968.75 232.5 a7.75 7.75 0 1 0 15.5 0 a7.75 7.75 0 1 0 -15.5 0z" fill="url(#SvgjsRadialGradient2432)"></path><path d="M511.5 387.5L542.5 418.5L573.5 418.5L604.5 449.5M201.5 387.5L232.5 356.5L263.5 356.5L294.5 356.5L325.5 356.5L356.5 356.5L387.5 356.5L418.5 356.5L449.5 356.5L480.5 356.5L511.5 356.5M914.5 356.5L945.5 387.5L976.5 387.5L1007.5 418.5M449.5 418.5L480.5 387.5M883.5 387.5L914.5 387.5L945.5 418.5L976.5 418.5L1007.5 449.5M356.5 418.5L387.5 387.5L418.5 387.5M1038.5 356.5L1069.5 387.5L1100.5 387.5M821.5 387.5L852.5 418.5L883.5 418.5M1007.5 356.5L1038.5 387.5L1069.5 418.5L1100.5 418.5L1131.5 449.5M-15.5 356.5L15.5 387.5L46.5 387.5L77.5 387.5L108.5 387.5L139.5 387.5L170.5 387.5L201.5 387.5L232.5 387.5L263.5 387.5L294.5 387.5L325.5 418.5L356.5 418.5L387.5 418.5L418.5 418.5L449.5 418.5L480.5 418.5L511.5 387.5L542.5 387.5L573.5 387.5L604.5 387.5L635.5 387.5L666.5 387.5L697.5 356.5L728.5 356.5L759.5 387.5L790.5 387.5L821.5 387.5L852.5 387.5L883.5 387.5L914.5 356.5L945.5 356.5L976.5 356.5L1007.5 356.5L1038.5 356.5L1069.5 356.5L1100.5 356.5" stroke="url(#SvgjsRadialGradient2432)" stroke-width="5.17"></path><path d="M1092.75 356.5 a7.75 7.75 0 1 0 15.5 0 a7.75 7.75 0 1 0 -15.5 0zM596.75 449.5 a7.75 7.75 0 1 0 15.5 0 a7.75 7.75 0 1 0 -15.5 0zM503.75 356.5 a7.75 7.75 0 1 0 15.5 0 a7.75 7.75 0 1 0 -15.5 0zM999.75 418.5 a7.75 7.75 0 1 0 15.5 0 a7.75 7.75 0 1 0 -15.5 0zM472.75 387.5 a7.75 7.75 0 1 0 15.5 0 a7.75 7.75 0 1 0 -15.5 0zM999.75 449.5 a7.75 7.75 0 1 0 15.5 0 a7.75 7.75 0 1 0 -15.5 0zM410.75 387.5 a7.75 7.75 0 1 0 15.5 0 a7.75 7.75 0 1 0 -15.5 0zM1092.75 387.5 a7.75 7.75 0 1 0 15.5 0 a7.75 7.75 0 1 0 -15.5 0zM875.75 418.5 a7.75 7.75 0 1 0 15.5 0 a7.75 7.75 0 1 0 -15.5 0zM1123.75 449.5 a7.75 7.75 0 1 0 15.5 0 a7.75 7.75 0 1 0 -15.5 0z" fill="url(#SvgjsRadialGradient2432)"></path><path d="M325.5 139.5L356.5 139.5L387.5 139.5L418.5 139.5M-15.5 201.5L15.5 201.5L46.5 201.5L77.5 170.5L108.5 139.5L139.5 139.5L170.5 139.5L201.5 139.5L232.5 139.5L263.5 139.5L294.5 139.5L325.5 139.5L356.5 108.5" stroke="url(#SvgjsRadialGradient2432)" stroke-width="5.17"></path><path d="M348.75 108.5 a7.75 7.75 0 1 0 15.5 0 a7.75 7.75 0 1 0 -15.5 0zM410.75 139.5 a7.75 7.75 0 1 0 15.5 0 a7.75 7.75 0 1 0 -15.5 0z" fill="url(#SvgjsRadialGradient2432)"></path><path d="M108.5 418.5L139.5 449.5L170.5 449.5M77.5 418.5L108.5 449.5L139.5 480.5L170.5 480.5L201.5 480.5M46.5 418.5L77.5 449.5L108.5 480.5M-15.5 387.5L15.5 418.5L46.5 418.5L77.5 418.5L108.5 418.5L139.5 418.5L170.5 418.5L201.5 418.5L232.5 418.5L263.5 418.5L294.5 418.5L325.5 449.5L356.5 449.5L387.5 449.5L418.5 480.5" stroke="url(#SvgjsRadialGradient2432)" stroke-width="5.17"></path><path d="M410.75 480.5 a7.75 7.75 0 1 0 15.5 0 a7.75 7.75 0 1 0 -15.5 0zM162.75 449.5 a7.75 7.75 0 1 0 15.5 0 a7.75 7.75 0 1 0 -15.5 0zM193.75 480.5 a7.75 7.75 0 1 0 15.5 0 a7.75 7.75 0 1 0 -15.5 0zM100.75 480.5 a7.75 7.75 0 1 0 15.5 0 a7.75 7.75 0 1 0 -15.5 0z" fill="url(#SvgjsRadialGradient2432)"></path><path d="M1007.5 77.5L1038.5 108.5L1069.5 139.5L1100.5 139.5L1131.5 139.5L1162.5 139.5M263.5 108.5L294.5 77.5L325.5 77.5M1224.5 108.5L1255.5 77.5L1286.5 77.5M759.5 77.5L790.5 108.5L821.5 108.5L852.5 108.5L883.5 108.5L914.5 108.5L945.5 139.5M728.5 77.5L759.5 108.5M697.5 108.5L728.5 108.5M573.5 108.5L604.5 77.5L635.5 77.5L666.5 77.5L697.5 77.5M1100.5 77.5L1131.5 77.5L1162.5 77.5M914.5 77.5L945.5 77.5M232.5 108.5L263.5 77.5M-15.5 170.5L15.5 170.5L46.5 139.5L77.5 139.5L108.5 108.5L139.5 108.5L170.5 108.5L201.5 108.5L232.5 108.5L263.5 108.5L294.5 108.5L325.5 108.5L356.5 77.5L387.5 77.5L418.5 108.5L449.5 108.5L480.5 108.5L511.5 108.5L542.5 108.5L573.5 108.5L604.5 108.5L635.5 108.5L666.5 108.5L697.5 108.5L728.5 77.5L759.5 77.5L790.5 77.5L821.5 77.5L852.5 77.5L883.5 77.5L914.5 77.5L945.5 108.5L976.5 108.5L1007.5 77.5L1038.5 77.5L1069.5 77.5L1100.5 77.5L1131.5 108.5L1162.5 108.5L1193.5 108.5L1224.5 108.5L1255.5 108.5L1286.5 108.5" stroke="url(#SvgjsRadialGradient2432)" stroke-width="5.17"></path><path d="M1278.75 108.5 a7.75 7.75 0 1 0 15.5 0 a7.75 7.75 0 1 0 -15.5 0zM1154.75 139.5 a7.75 7.75 0 1 0 15.5 0 a7.75 7.75 0 1 0 -15.5 0zM317.75 77.5 a7.75 7.75 0 1 0 15.5 0 a7.75 7.75 0 1 0 -15.5 0zM1278.75 77.5 a7.75 7.75 0 1 0 15.5 0 a7.75 7.75 0 1 0 -15.5 0zM937.75 139.5 a7.75 7.75 0 1 0 15.5 0 a7.75 7.75 0 1 0 -15.5 0zM751.75 108.5 a7.75 7.75 0 1 0 15.5 0 a7.75 7.75 0 1 0 -15.5 0zM720.75 108.5 a7.75 7.75 0 1 0 15.5 0 a7.75 7.75 0 1 0 -15.5 0zM689.75 77.5 a7.75 7.75 0 1 0 15.5 0 a7.75 7.75 0 1 0 -15.5 0zM1154.75 77.5 a7.75 7.75 0 1 0 15.5 0 a7.75 7.75 0 1 0 -15.5 0zM937.75 77.5 a7.75 7.75 0 1 0 15.5 0 a7.75 7.75 0 1 0 -15.5 0zM255.75 77.5 a7.75 7.75 0 1 0 15.5 0 a7.75 7.75 0 1 0 -15.5 0z" fill="url(#SvgjsRadialGradient2432)"></path></g></g><defs><mask id="SvgjsMask2431"><rect width="1440" height="560" fill="#ffffff"></rect></mask><radialGradient cx="720" cy="280" r="772.53" gradientUnits="userSpaceOnUse" id="SvgjsRadialGradient2432"><stop stop-color="rgba(58, 124, 195, 0.65)" offset="0.07"></stop><stop stop-color="rgba(24, 158, 2, 0.71)" offset="0.4"></stop><stop stop-color="rgba(248, 0, 0, 0.69)" offset="0.75"></stop></radialGradient><mask id="SvgjsMask2433"><rect width="1440" height="560" fill="white"></rect><path d="M1344.62 263.5 a3.88 3.88 0 1 0 7.76 0 a3.88 3.88 0 1 0 -7.76 0zM631.62 294.5 a3.88 3.88 0 1 0 7.76 0 a3.88 3.88 0 1 0 -7.76 0zM755.62 232.5 a3.88 3.88 0 1 0 7.76 0 a3.88 3.88 0 1 0 -7.76 0zM383.62 294.5 a3.88 3.88 0 1 0 7.76 0 a3.88 3.88 0 1 0 -7.76 0zM1344.62 356.5 a3.88 3.88 0 1 0 7.76 0 a3.88 3.88 0 1 0 -7.76 0zM1003.62 325.5 a3.88 3.88 0 1 0 7.76 0 a3.88 3.88 0 1 0 -7.76 0zM1375.62 325.5 a3.88 3.88 0 1 0 7.76 0 a3.88 3.88 0 1 0 -7.76 0zM507.62 263.5 a3.88 3.88 0 1 0 7.76 0 a3.88 3.88 0 1 0 -7.76 0zM569.62 356.5 a3.88 3.88 0 1 0 7.76 0 a3.88 3.88 0 1 0 -7.76 0zM507.62 232.5 a3.88 3.88 0 1 0 7.76 0 a3.88 3.88 0 1 0 -7.76 0zM1375.62 232.5 a3.88 3.88 0 1 0 7.76 0 a3.88 3.88 0 1 0 -7.76 0zM1189.62 263.5 a3.88 3.88 0 1 0 7.76 0 a3.88 3.88 0 1 0 -7.76 0z" fill="black"></path><path d="M290.62 232.5 a3.88 3.88 0 1 0 7.76 0 a3.88 3.88 0 1 0 -7.76 0zM321.62 201.5 a3.88 3.88 0 1 0 7.76 0 a3.88 3.88 0 1 0 -7.76 0zM228.62 201.5 a3.88 3.88 0 1 0 7.76 0 a3.88 3.88 0 1 0 -7.76 0zM197.62 201.5 a3.88 3.88 0 1 0 7.76 0 a3.88 3.88 0 1 0 -7.76 0z" fill="black"></path><path d="M104.62 356.5 a3.88 3.88 0 1 0 7.76 0 a3.88 3.88 0 1 0 -7.76 0z" fill="black"></path><path d="M1344.62 201.5 a3.88 3.88 0 1 0 7.76 0 a3.88 3.88 0 1 0 -7.76 0zM507.62 201.5 a3.88 3.88 0 1 0 7.76 0 a3.88 3.88 0 1 0 -7.76 0zM755.62 170.5 a3.88 3.88 0 1 0 7.76 0 a3.88 3.88 0 1 0 -7.76 0zM1251.62 201.5 a3.88 3.88 0 1 0 7.76 0 a3.88 3.88 0 1 0 -7.76 0zM817.62 232.5 a3.88 3.88 0 1 0 7.76 0 a3.88 3.88 0 1 0 -7.76 0zM1375.62 139.5 a3.88 3.88 0 1 0 7.76 0 a3.88 3.88 0 1 0 -7.76 0zM879.62 170.5 a3.88 3.88 0 1 0 7.76 0 a3.88 3.88 0 1 0 -7.76 0zM755.62 139.5 a3.88 3.88 0 1 0 7.76 0 a3.88 3.88 0 1 0 -7.76 0zM135.62 201.5 a3.88 3.88 0 1 0 7.76 0 a3.88 3.88 0 1 0 -7.76 0zM1251.62 139.5 a3.88 3.88 0 1 0 7.76 0 a3.88 3.88 0 1 0 -7.76 0zM476.62 201.5 a3.88 3.88 0 1 0 7.76 0 a3.88 3.88 0 1 0 -7.76 0zM972.62 232.5 a3.88 3.88 0 1 0 7.76 0 a3.88 3.88 0 1 0 -7.76 0z" fill="black"></path><path d="M1096.62 356.5 a3.88 3.88 0 1 0 7.76 0 a3.88 3.88 0 1 0 -7.76 0zM600.62 449.5 a3.88 3.88 0 1 0 7.76 0 a3.88 3.88 0 1 0 -7.76 0zM507.62 356.5 a3.88 3.88 0 1 0 7.76 0 a3.88 3.88 0 1 0 -7.76 0zM1003.62 418.5 a3.88 3.88 0 1 0 7.76 0 a3.88 3.88 0 1 0 -7.76 0zM476.62 387.5 a3.88 3.88 0 1 0 7.76 0 a3.88 3.88 0 1 0 -7.76 0zM1003.62 449.5 a3.88 3.88 0 1 0 7.76 0 a3.88 3.88 0 1 0 -7.76 0zM414.62 387.5 a3.88 3.88 0 1 0 7.76 0 a3.88 3.88 0 1 0 -7.76 0zM1096.62 387.5 a3.88 3.88 0 1 0 7.76 0 a3.88 3.88 0 1 0 -7.76 0zM879.62 418.5 a3.88 3.88 0 1 0 7.76 0 a3.88 3.88 0 1 0 -7.76 0zM1127.62 449.5 a3.88 3.88 0 1 0 7.76 0 a3.88 3.88 0 1 0 -7.76 0z" fill="black"></path><path d="M352.62 108.5 a3.88 3.88 0 1 0 7.76 0 a3.88 3.88 0 1 0 -7.76 0zM414.62 139.5 a3.88 3.88 0 1 0 7.76 0 a3.88 3.88 0 1 0 -7.76 0z" fill="black"></path><path d="M414.62 480.5 a3.88 3.88 0 1 0 7.76 0 a3.88 3.88 0 1 0 -7.76 0zM166.62 449.5 a3.88 3.88 0 1 0 7.76 0 a3.88 3.88 0 1 0 -7.76 0zM197.62 480.5 a3.88 3.88 0 1 0 7.76 0 a3.88 3.88 0 1 0 -7.76 0zM104.62 480.5 a3.88 3.88 0 1 0 7.76 0 a3.88 3.88 0 1 0 -7.76 0z" fill="black"></path><path d="M1282.62 108.5 a3.88 3.88 0 1 0 7.76 0 a3.88 3.88 0 1 0 -7.76 0zM1158.62 139.5 a3.88 3.88 0 1 0 7.76 0 a3.88 3.88 0 1 0 -7.76 0zM321.62 77.5 a3.88 3.88 0 1 0 7.76 0 a3.88 3.88 0 1 0 -7.76 0zM1282.62 77.5 a3.88 3.88 0 1 0 7.76 0 a3.88 3.88 0 1 0 -7.76 0zM941.62 139.5 a3.88 3.88 0 1 0 7.76 0 a3.88 3.88 0 1 0 -7.76 0zM755.62 108.5 a3.88 3.88 0 1 0 7.76 0 a3.88 3.88 0 1 0 -7.76 0zM724.62 108.5 a3.88 3.88 0 1 0 7.76 0 a3.88 3.88 0 1 0 -7.76 0zM693.62 77.5 a3.88 3.88 0 1 0 7.76 0 a3.88 3.88 0 1 0 -7.76 0zM1158.62 77.5 a3.88 3.88 0 1 0 7.76 0 a3.88 3.88 0 1 0 -7.76 0zM941.62 77.5 a3.88 3.88 0 1 0 7.76 0 a3.88 3.88 0 1 0 -7.76 0zM259.62 77.5 a3.88 3.88 0 1 0 7.76 0 a3.88 3.88 0 1 0 -7.76 0z" fill="black"></path></mask></defs></svg>