<svg xmlns="http://www.w3.org/2000/svg" version="1.1" xmlns:xlink="http://www.w3.org/1999/xlink" xmlns:svgjs="http://svgjs.com/svgjs" width="1440" height="560" preserveAspectRatio="none" viewBox="0 0 1440 560"><g mask="url(&quot;#SvgjsMask1147&quot;)" fill="none"><path d="M372 465L10 103" stroke-width="8" stroke="url(#SvgjsLinearGradient1148)" stroke-linecap="round" class="BottomRight"></path><path d="M635 163L357 -115" stroke-width="6" stroke="url(#SvgjsLinearGradient1149)" stroke-linecap="round" class="BottomRight"></path><path d="M1134 506L1383 755" stroke-width="8" stroke="url(#SvgjsLinearGradient1150)" stroke-linecap="round" class="TopLeft"></path><path d="M1325 14L910 -401" stroke-width="6" stroke="url(#SvgjsLinearGradient1151)" stroke-linecap="round" class="TopLeft"></path><path d="M430 186L151 -93" stroke-width="10" stroke="url(#SvgjsLinearGradient1150)" stroke-linecap="round" class="TopLeft"></path><path d="M942 41L680 -221" stroke-width="6" stroke="url(#SvgjsLinearGradient1149)" stroke-linecap="round" class="BottomRight"></path><path d="M106 35L-207 -278" stroke-width="6" stroke="url(#SvgjsLinearGradient1149)" stroke-linecap="round" class="BottomRight"></path><path d="M520 17L341 -162" stroke-width="10" stroke="url(#SvgjsLinearGradient1151)" stroke-linecap="round" class="TopLeft"></path><path d="M745 129L521 -95" stroke-width="6" stroke="url(#SvgjsLinearGradient1152)" stroke-linecap="round" class="BottomRight"></path><path d="M918 135L633 -150" stroke-width="10" stroke="url(#SvgjsLinearGradient1150)" stroke-linecap="round" class="TopLeft"></path><path d="M807 66L1021 280" stroke-width="8" stroke="url(#SvgjsLinearGradient1153)" stroke-linecap="round" class="TopLeft"></path><path d="M1304 551L985 232" stroke-width="10" stroke="url(#SvgjsLinearGradient1153)" stroke-linecap="round" class="TopLeft"></path><path d="M442 264L733 555" stroke-width="8" stroke="url(#SvgjsLinearGradient1149)" stroke-linecap="round" class="BottomRight"></path><path d="M1344 451L1509 616" stroke-width="8" stroke="url(#SvgjsLinearGradient1153)" stroke-linecap="round" class="TopLeft"></path><path d="M1287 71L1460 244" stroke-width="8" stroke="url(#SvgjsLinearGradient1152)" stroke-linecap="round" class="BottomRight"></path><path d="M251 265L58 72" stroke-width="10" stroke="url(#SvgjsLinearGradient1149)" stroke-linecap="round" class="BottomRight"></path><path d="M126 195L455 524" stroke-width="8" stroke="url(#SvgjsLinearGradient1148)" stroke-linecap="round" class="BottomRight"></path><path d="M173 456L590 873" stroke-width="10" stroke="url(#SvgjsLinearGradient1150)" stroke-linecap="round" class="TopLeft"></path><path d="M715 81L965 331" stroke-width="6" stroke="url(#SvgjsLinearGradient1152)" stroke-linecap="round" class="BottomRight"></path><path d="M482 77L837 432" stroke-width="6" stroke="url(#SvgjsLinearGradient1150)" stroke-linecap="round" class="TopLeft"></path><path d="M1418 541L1043 166" stroke-width="8" stroke="url(#SvgjsLinearGradient1152)" stroke-linecap="round" class="BottomRight"></path><path d="M10 494L260 744" stroke-width="6" stroke="url(#SvgjsLinearGradient1153)" stroke-linecap="round" class="TopLeft"></path><path d="M813 539L559 285" stroke-width="8" stroke="url(#SvgjsLinearGradient1149)" stroke-linecap="round" class="BottomRight"></path><path d="M211 183L-194 -222" stroke-width="10" stroke="url(#SvgjsLinearGradient1149)" stroke-linecap="round" class="BottomRight"></path><path d="M960 347L803 190" stroke-width="8" stroke="url(#SvgjsLinearGradient1149)" stroke-linecap="round" class="BottomRight"></path><path d="M386 99L708 421" stroke-width="6" stroke="url(#SvgjsLinearGradient1149)" stroke-linecap="round" class="BottomRight"></path><path d="M729 461L383 115" stroke-width="10" stroke="url(#SvgjsLinearGradient1151)" stroke-linecap="round" class="TopLeft"></path><path d="M1000 62L1364 426" stroke-width="8" stroke="url(#SvgjsLinearGradient1153)" stroke-linecap="round" class="TopLeft"></path><path d="M283 432L-87 62" stroke-width="6" stroke="url(#SvgjsLinearGradient1151)" stroke-linecap="round" class="TopLeft"></path><path d="M1060 328L1367 635" stroke-width="6" stroke="url(#SvgjsLinearGradient1152)" stroke-linecap="round" class="BottomRight"></path><path d="M1037 91L645 -301" stroke-width="10" stroke="url(#SvgjsLinearGradient1150)" stroke-linecap="round" class="TopLeft"></path><path d="M294 546L696 948" stroke-width="10" stroke="url(#SvgjsLinearGradient1150)" stroke-linecap="round" class="TopLeft"></path><path d="M714 299L1106 691" stroke-width="8" stroke="url(#SvgjsLinearGradient1149)" stroke-linecap="round" class="BottomRight"></path><path d="M742 379L474 111" stroke-width="8" stroke="url(#SvgjsLinearGradient1149)" stroke-linecap="round" class="BottomRight"></path><path d="M214 345L442 573" stroke-width="10" stroke="url(#SvgjsLinearGradient1150)" stroke-linecap="round" class="TopLeft"></path><path d="M192 180L23 11" stroke-width="8" stroke="url(#SvgjsLinearGradient1151)" stroke-linecap="round" class="TopLeft"></path><path d="M20 334L294 608" stroke-width="8" stroke="url(#SvgjsLinearGradient1153)" stroke-linecap="round" class="TopLeft"></path><path d="M1257 58L1459 260" stroke-width="6" stroke="url(#SvgjsLinearGradient1153)" stroke-linecap="round" class="TopLeft"></path><path d="M92 294L276 478" stroke-width="10" stroke="url(#SvgjsLinearGradient1151)" stroke-linecap="round" class="TopLeft"></path></g><defs><mask id="SvgjsMask1147"><rect width="1440" height="560" fill="#ffffff"></rect></mask><linearGradient x1="0%" y1="0%" x2="100%" y2="100%" id="SvgjsLinearGradient1148"><stop stop-color="rgba(24, 158, 2, 0)" offset="0"></stop><stop stop-color="rgba(24, 158, 2, 1)" offset="1"></stop></linearGradient><linearGradient x1="0%" y1="0%" x2="100%" y2="100%" id="SvgjsLinearGradient1149"><stop stop-color="rgba(248, 0, 0, 0)" offset="0"></stop><stop stop-color="rgba(248, 0, 0, 1)" offset="1"></stop></linearGradient><linearGradient x1="100%" y1="100%" x2="0%" y2="0%" id="SvgjsLinearGradient1150"><stop stop-color="rgba(0, 85, 209, 0)" offset="0"></stop><stop stop-color="rgba(0, 85, 209, 1)" offset="1"></stop></linearGradient><linearGradient x1="100%" y1="100%" x2="0%" y2="0%" id="SvgjsLinearGradient1151"><stop stop-color="rgba(248, 0, 0, 0)" offset="0"></stop><stop stop-color="rgba(248, 0, 0, 1)" offset="1"></stop></linearGradient><linearGradient x1="0%" y1="0%" x2="100%" y2="100%" id="SvgjsLinearGradient1152"><stop stop-color="rgba(0, 85, 209, 0)" offset="0"></stop><stop stop-color="rgba(0, 85, 209, 1)" offset="1"></stop></linearGradient><linearGradient x1="100%" y1="100%" x2="0%" y2="0%" id="SvgjsLinearGradient1153"><stop stop-color="rgba(24, 158, 2, 0)" offset="0"></stop><stop stop-color="rgba(24, 158, 2, 1)" offset="1"></stop></linearGradient></defs></svg>